<mxfile host="app.diagrams.net" modified="2021-01-18T14:01:58.124Z" agent="5.0 (Windows NT 10.0; Win64; x64) AppleWebKit/537.36 (KHTML, like Gecko) Chrome/87.0.4280.141 Safari/537.36" etag="VnpGqcHjEpohz97ZaA0x" version="14.2.4" type="github">
  <diagram id="DMizLd6jPB5jcuzPNhlE" name="Page-1">
    <mxGraphModel dx="1185" dy="693" grid="1" gridSize="10" guides="1" tooltips="1" connect="1" arrows="1" fold="1" page="1" pageScale="1" pageWidth="850" pageHeight="1100" math="0" shadow="0">
      <root>
        <mxCell id="0" />
        <mxCell id="1" parent="0" />
        <mxCell id="u1e_f7d8fE_HU2oM6N3n-2" value="数据库" style="shape=datastore;whiteSpace=wrap;html=1;" vertex="1" parent="1">
          <mxGeometry x="340" y="280" width="110" height="60" as="geometry" />
        </mxCell>
        <mxCell id="u1e_f7d8fE_HU2oM6N3n-8" value="" style="edgeStyle=orthogonalEdgeStyle;rounded=0;orthogonalLoop=1;jettySize=auto;html=1;" edge="1" parent="1" source="u1e_f7d8fE_HU2oM6N3n-3" target="u1e_f7d8fE_HU2oM6N3n-2">
          <mxGeometry relative="1" as="geometry" />
        </mxCell>
        <mxCell id="u1e_f7d8fE_HU2oM6N3n-3" value="网站界面" style="outlineConnect=0;fontColor=#232F3E;gradientColor=none;fillColor=#ffffff;dashed=0;verticalLabelPosition=bottom;verticalAlign=top;align=center;html=1;fontSize=12;fontStyle=0;aspect=fixed;shape=mxgraph.aws4.resourceIcon;resIcon=mxgraph.aws4.client;strokeColor=#1A1A1A;" vertex="1" parent="1">
          <mxGeometry x="365" y="180" width="60" height="60" as="geometry" />
        </mxCell>
        <mxCell id="u1e_f7d8fE_HU2oM6N3n-22" style="edgeStyle=orthogonalEdgeStyle;rounded=0;orthogonalLoop=1;jettySize=auto;html=1;" edge="1" parent="1" source="u1e_f7d8fE_HU2oM6N3n-6">
          <mxGeometry relative="1" as="geometry">
            <mxPoint x="469.5" y="570" as="targetPoint" />
          </mxGeometry>
        </mxCell>
        <mxCell id="u1e_f7d8fE_HU2oM6N3n-6" value="比特币节点" style="shape=image;html=1;verticalAlign=top;verticalLabelPosition=bottom;labelBackgroundColor=#ffffff;imageAspect=0;aspect=fixed;image=https://cdn4.iconfinder.com/data/icons/cryptocoins/227/BTC-128.png" vertex="1" parent="1">
          <mxGeometry x="439.5" y="590" width="60" height="60" as="geometry" />
        </mxCell>
        <mxCell id="u1e_f7d8fE_HU2oM6N3n-18" style="edgeStyle=orthogonalEdgeStyle;rounded=0;orthogonalLoop=1;jettySize=auto;html=1;exitX=0.5;exitY=0.01;exitDx=0;exitDy=0;exitPerimeter=0;entryX=0.5;entryY=1;entryDx=0;entryDy=0;" edge="1" parent="1" source="u1e_f7d8fE_HU2oM6N3n-7" target="u1e_f7d8fE_HU2oM6N3n-2">
          <mxGeometry relative="1" as="geometry">
            <mxPoint x="390" y="370" as="targetPoint" />
            <Array as="points">
              <mxPoint x="469" y="360" />
              <mxPoint x="395" y="360" />
            </Array>
          </mxGeometry>
        </mxCell>
        <mxCell id="u1e_f7d8fE_HU2oM6N3n-7" value="LSTM模型" style="shape=mxgraph.signs.healthcare.brain;html=1;pointerEvents=1;strokeColor=none;verticalLabelPosition=bottom;verticalAlign=top;align=center;fillColor=#1A1A1A;" vertex="1" parent="1">
          <mxGeometry x="439.75" y="398" width="50.25" height="52" as="geometry" />
        </mxCell>
        <mxCell id="u1e_f7d8fE_HU2oM6N3n-17" style="edgeStyle=orthogonalEdgeStyle;rounded=0;orthogonalLoop=1;jettySize=auto;html=1;entryX=0.5;entryY=1;entryDx=0;entryDy=0;" edge="1" parent="1" source="u1e_f7d8fE_HU2oM6N3n-10" target="u1e_f7d8fE_HU2oM6N3n-2">
          <mxGeometry relative="1" as="geometry">
            <Array as="points">
              <mxPoint x="315" y="360" />
              <mxPoint x="395" y="360" />
            </Array>
          </mxGeometry>
        </mxCell>
        <mxCell id="u1e_f7d8fE_HU2oM6N3n-10" value="合约审计引擎" style="pointerEvents=1;shadow=0;dashed=0;html=1;strokeColor=none;labelPosition=center;verticalLabelPosition=bottom;verticalAlign=top;align=center;shape=mxgraph.mscae.oms.log_search;fillColor=#1A1A1A;" vertex="1" parent="1">
          <mxGeometry x="290.5" y="390" width="50" height="50" as="geometry" />
        </mxCell>
        <mxCell id="u1e_f7d8fE_HU2oM6N3n-16" style="edgeStyle=orthogonalEdgeStyle;rounded=0;orthogonalLoop=1;jettySize=auto;html=1;" edge="1" parent="1" source="u1e_f7d8fE_HU2oM6N3n-12">
          <mxGeometry relative="1" as="geometry">
            <mxPoint x="315.5" y="470" as="targetPoint" />
          </mxGeometry>
        </mxCell>
        <mxCell id="u1e_f7d8fE_HU2oM6N3n-12" value="合约信息获取" style="shape=image;html=1;verticalAlign=top;verticalLabelPosition=bottom;labelBackgroundColor=#ffffff;imageAspect=0;aspect=fixed;image=https://cdn2.iconfinder.com/data/icons/free-solid-halloween-icons/24/Spider-128.png" vertex="1" parent="1">
          <mxGeometry x="281.5" y="510" width="68" height="68" as="geometry" />
        </mxCell>
        <mxCell id="u1e_f7d8fE_HU2oM6N3n-19" style="edgeStyle=orthogonalEdgeStyle;rounded=0;orthogonalLoop=1;jettySize=auto;html=1;" edge="1" parent="1" source="u1e_f7d8fE_HU2oM6N3n-13">
          <mxGeometry relative="1" as="geometry">
            <mxPoint x="469.5" y="480" as="targetPoint" />
          </mxGeometry>
        </mxCell>
        <mxCell id="u1e_f7d8fE_HU2oM6N3n-13" value="比特币信息提取" style="aspect=fixed;pointerEvents=1;shadow=0;dashed=0;html=1;strokeColor=none;labelPosition=center;verticalLabelPosition=bottom;verticalAlign=top;align=center;shape=mxgraph.mscae.enterprise.filter;fillColor=#1A1A1A;" vertex="1" parent="1">
          <mxGeometry x="444.5" y="500" width="50" height="45" as="geometry" />
        </mxCell>
      </root>
    </mxGraphModel>
  </diagram>
</mxfile>
